<svg id="Layer_1" data-name="Layer 1" xmlns="http://www.w3.org/2000/svg" width="497.7162" height="80.6547" viewBox="0 0 497.7162 80.6547"><defs><style>.cls-1,.cls-4,.cls-7,.cls-8{fill:none;stroke:#3f57a6;stroke-miterlimit:10;}.cls-1,.cls-7{stroke-width:3px;}.cls-2{fill:#f4a857;}.cls-3{fill:#f2e64b;}.cls-4{stroke-width:1.5px;}.cls-5{fill:#4057a6;}.cls-6{fill:#f2e64a;}.cls-7{stroke-linecap:round;}.cls-8{stroke-width:0.75px;}.cls-9{fill:#3f57a6;}</style></defs><g id="P"><path class="cls-1" d="M44.8361,40.5958H22.6375C10.9636,40.5958,1.5,31.9925,1.5,21.38h0c0-10.6127,9.4636-19.216,21.1375-19.216H71.84" transform="translate(0 0.0007)"/><path class="cls-1" d="M26.087,40.5958H50.7023c11.6739,0,21.1375,8.6033,21.1375,19.216h0c0,10.6127-9.4636,19.2159-21.1375,19.2159H1.5" transform="translate(0 0.0007)"/><path class="cls-2" d="M23.1045,6.6124H62.4922V35.1548H23.1045A14.2712,14.2712,0,0,1,8.8333,20.8836h0A14.2712,14.2712,0,0,1,23.1045,6.6124Z" transform="translate(0 0.0007)"/><path class="cls-3" d="M50.5462,74.1356H11.1586V45.5933H50.5462A14.2712,14.2712,0,0,1,64.8178,59.8641v0h0A14.2712,14.2712,0,0,1,50.5466,74.1356Z" transform="translate(0 0.0007)"/><path class="cls-4" d="M24.5316,6.6124c-8.67,0-15.6983,6.3894-15.6983,14.2712s7.0284,14.2711,15.6983,14.2711" transform="translate(0 0.0007)"/><path class="cls-4" d="M49.119,45.5407c8.67,0,15.6983,6.3894,15.6983,14.2711S57.7889,74.083,49.119,74.083" transform="translate(0 0.0007)"/><line class="cls-4" x1="16.7032" y1="21.5563" x2="64.8174" y2="21.5563"/><line class="cls-4" x1="16.7032" y1="28.5563" x2="64.8174" y2="28.5563"/><line class="cls-4" x1="8.8333" y1="66.8126" x2="54.7571" y2="66.8126"/><line class="cls-4" x1="8.8333" y1="52.8126" x2="54.7571" y2="52.8126"/><line class="cls-4" x1="16.7032" y1="14.5563" x2="64.8174" y2="14.5563"/><line class="cls-4" x1="8.8333" y1="59.8126" x2="54.7571" y2="59.8126"/><polygon class="cls-5" points="136.273 1.021 79.84 1.021 79.84 12.401 102.367 12.401 102.367 79.929 113.746 79.929 113.746 12.401 136.273 12.401 136.273 1.021"/><path class="cls-5" d="M141.7864,1.3926l-.1113,51.8909a31.6524,31.6524,0,0,0,6.99,18.1383c6.1227,7.5786,18.251,8.481,18.251,8.481s11.1492.4586,19.5834-10.0891a32.3152,32.3152,0,0,0,5.7325-17.3918c.4586-10.6974,0-51.028,0-51.028H182.0281v48.7s2.1907,14.961-12.4107,19.5979a9.8779,9.8779,0,0,1-5.9546,0c-4.4224-1.3945-11.7876-5.5155-11.7876-17.4963,0-17.121.1147-50.8019.1147-50.8019Z" transform="translate(0 0.0007)"/><rect class="cls-2" x="203.9748" y="5.8527" width="59.0247" height="56.3055" rx="4.5347"/><path class="cls-6" d="M208.51,5.8327h2.0351a3.519,3.519,0,0,1,3.519,3.519V58.6193a3.519,3.519,0,0,1-3.519,3.519H208.51a4.5348,4.5348,0,0,1-4.5347-4.5347V10.3675A4.5347,4.5347,0,0,1,208.51,5.8327Z" transform="translate(0 0.0007)"/><path class="cls-1" d="M269.7161,79.0278H219.5138c-11.6739,0-19.8961,0-19.8961-6.7255h0c0-7.9664,8.2222-6.7256,19.8961-6.7256H261.721" transform="translate(0 0.0007)"/><path class="cls-7" d="M199.56,9.0043a6.485,6.485,0,0,1,6.4767-6.485L260.9207,2.45a6.485,6.485,0,0,1,6.4931,6.4767V59.0713a6.4849,6.4849,0,0,1-6.4767,6.4849l-50.6.0695" transform="translate(0 0.0007)"/><line class="cls-7" x1="199.5604" y1="7.585" x2="199.5604" y2="49.0881"/><line class="cls-7" x1="199.5604" y1="53.2537" x2="199.5604" y2="58.413"/><line class="cls-7" x1="199.6177" y1="62.8334" x2="199.6177" y2="63.827"/><line class="cls-1" x1="212.812" y1="4.8334" x2="212.812" y2="63.1391"/><path class="cls-2" d="M208.7,68.2214h54.299v8.0918H208.7a4.0459,4.0459,0,0,1-4.0459-4.0459h0A4.0459,4.0459,0,0,1,208.7,68.2214Z" transform="translate(0 0.0007)"/><line class="cls-8" x1="209.206" y1="72.4797" x2="264.7674" y2="72.4797"/><line class="cls-8" x1="209.206" y1="74.6847" x2="264.7674" y2="74.6847"/><line class="cls-8" x1="209.206" y1="70.2747" x2="264.7674" y2="70.2747"/><path class="cls-8" d="M212.8119,76.2006c-6.08,0-7.7046.1125-8.3921-3.9141h0c.2347-4.8934,3.8594-4.0651,8.3921-4.0651" transform="translate(0 0.0007)"/><polygon class="cls-9" points="335.862 0.706 311.681 33.393 288.76 0.42 273.186 0.42 303.623 44.204 303.682 44.204 276.716 80.655 292.29 80.655 351.435 0.706 335.862 0.706"/><rect class="cls-5" x="350.6487" y="44.4904" width="27.8611" height="7.3493" rx="2.8148"/><path class="cls-5" d="M444.1333,44.2721l-5.2652-13.185-5.142,13.4023v5.4291s2.1907,14.961-12.4108,19.5978a9.8776,9.8776,0,0,1-5.9545,0c-4.4225-1.3946-11.7876-5.5155-11.7876-17.4963,0-10.6475.0443-22.707.0779-30.3066a20.36,20.36,0,0,1,8.1015,4.6552C411.8863,5.9037,399.1412-.0007,399.1412-.0007,385.46,9.4578,386.53,26.3686,386.53,26.3686a21.8565,21.8565,0,0,1,6.9317-4.294l-.0886,31.033a31.653,31.653,0,0,0,6.99,18.1383c6.1226,7.5787,18.251,8.4811,18.251,8.4811s11.1492.4586,19.5835-10.0892A31.96,31.96,0,0,0,443.93,52.2471C444.2825,43.2976,444.1333,44.2721,444.1333,44.2721Z" transform="translate(0 0.0007)"/><polygon class="cls-5" points="452.046 77.821 461.615 77.821 461.615 49.623 452.046 77.821"/><polygon class="cls-5" points="452.046 77.821 452.046 4.561 461.615 11.49 461.615 49.623 452.046 77.821"/><path class="cls-5" d="M452.0461,4.56l9.5693,6.93s8.9169-1.3063,13.5029-.5419a18.3781,18.3781,0,0,1,7.2612,2.7133s2.5223.9172,4.51,5.3121a15.2221,15.2221,0,0,1,1.07,8.637s.3822,1.9872-2.637,7.1083-10.242,5.8471-10.242,5.8471a52.8542,52.8542,0,0,1-13.4647.2728v7.4254a54.64,54.64,0,0,0,16.9424-.5135c6.3488-1.2507,12.42-5.1974,14.3694-8.2165s3.0574-4.395,3.7835-7.1848,1.3376-8.4076.8025-10.3949-.6879-7.6051-5.9618-12.3821a25.9,25.9,0,0,0-12.4968-5.7325S464.6575,2.7633,452.0461,4.56Z" transform="translate(0 0.0007)"/></g></svg>